# xmcd CD database file
#
# Track frame offsets:
#	150
#	19758
#	36746
#	52787
#	76347
#	91362
#	105383
#	125755
#	141833
#	161063
#	179187
#	199198
#	211504
#	230923
#	240548
#
# Disc length: 3456 seconds
#
# Revision: 1
# Processed by: cddbd v1.5.2PL0 Copyright (c) Steve Scherf et al.
# Submitted via: CDex 1.51
#
DISCID=d20d7e0f
DTITLE=Various Artist - STTW3198
DYEAR=1900
DGENRE=Blues
TTITLE0=Robbie Williams - Morning Sun
TTITLE1=Girls Can't Catch - Echo
TTITLE2=JLS - Beat Again
TTITLE3=Lady Gaga - Bad Romance
TTITLE4=Kings Of Leon - Notion
TTITLE5=Florence and The Machine - You've Got The Love
TTITLE6=Take That - Said It All
TTITLE7=Shakira - Gypsy
TTITLE8=Michael Buble - Haven't Met You Yet
TTITLE9=Cheryl Cole - Parachute
TTITLE10=Westlife - What About Now
TTITLE11=Paolo Nutini - Pencil Full Of Lead
TTITLE12=Black Eyed Peas The Meet Me Half Way
TTITLE13=Glee Cast - It's My life/Confessions Part 2
TTITLE14=Daniel Merriweather - Red
EXTD=
EXTT0=
EXTT1=
EXTT2=
EXTT3=
EXTT4=
EXTT5=
EXTT6=
EXTT7=
EXTT8=
EXTT9=
EXTT10=
EXTT11=
EXTT12=
EXTT13=
EXTT14=
PLAYORDER=
